<svg id="Capa_1" enable-background="new 0 0 512 512" height="512" viewBox="0 0 512 512" width="512" xmlns="http://www.w3.org/2000/svg"><g><path d="m256 0-128 256 128 256c141.385 0 256-114.615 256-256s-114.615-256-256-256z" fill="#ffa845"/><path d="m0 256c0 141.385 114.615 256 256 256v-512c-141.385 0-256 114.615-256 256z" fill="#ffbe52"/><path d="m452.213 256-10.606-10.606c-19.034-19.034-26.53-47.011-19.564-73.011l3.882-14.489-14.489-3.882c-26-6.967-46.48-27.447-53.448-53.448l-3.882-14.489-14.489 3.882c-26 6.965-53.978-.53-73.011-19.563l-10.606-10.607-90 196.213 90 196.213 10.606-10.606c19.034-19.034 47.011-26.529 73.011-19.563l14.489 3.882 3.882-14.489c6.967-26.001 27.447-46.481 53.448-53.448l14.489-3.882-3.882-14.489c-6.966-26 .53-53.977 19.564-73.011z" fill="#ff5d38"/><path d="m245.394 70.394c-19.035 19.034-47.011 26.528-73.011 19.563l-14.489-3.882-3.882 14.489c-6.967 26.001-27.447 46.481-53.448 53.448l-14.489 3.882 3.882 14.489c6.966 26.001-.53 53.977-19.563 73.011l-10.607 10.606 10.607 10.606c19.034 19.034 26.53 47.01 19.563 73.011l-3.882 14.489 14.489 3.882c26.001 6.968 46.481 27.448 53.448 53.448l3.882 14.489 14.489-3.882c25.999-6.967 53.977.529 73.011 19.564l10.606 10.606v-392.426z" fill="#ff8742"/><path d="m256 144-56 112 56 112c61.856 0 112-50.144 112-112s-50.144-112-112-112z" fill="#ff8742"/><path d="m144 256c0 61.856 50.144 112 112 112v-224c-61.856 0-112 50.144-112 112z" fill="#ffa845"/></g></svg>