<svg id="Capa_1" enable-background="new 0 0 512 512" height="512" viewBox="0 0 512 512" width="512" xmlns="http://www.w3.org/2000/svg"><g><circle cx="467" cy="467" fill="#b5f1ff" r="45"/><circle cx="45" cy="467" fill="#dbf8ff" r="45"/><circle cx="150.5" cy="405" fill="#dbf8ff" r="45"/><circle cx="361.5" cy="405" fill="#b5f1ff" r="45"/><path d="m271 360h-15l-7.5 15 7.5 15h15z" fill="#80dfff"/><path d="m241 360h15v30h-15z" fill="#b5f1ff"/><path d="m30 360h30v30h-30z" fill="#b5f1ff"/><path d="m452 360h30v30h-30z" fill="#80dfff" transform="matrix(-1 0 0 -1 934 750)"/><path d="m135.5 482h30v30h-30z" fill="#b5f1ff" transform="matrix(-1 0 0 -1 301 994)"/><path d="m346.5 482h30v30h-30z" fill="#80dfff"/><path d="m466.075 138.188c-5.555-35.268-35.488-62.045-71.74-63.153-30.316-46.504-82.509-75.035-138.335-75.035l-60 165 60 165h151c57.897 0 105-47.103 105-105 0-34.78-17.413-67.361-45.925-86.812z" fill="#b5b5b5"/><path d="m150.906 37.795c-25.923 21.441-44.719 50.396-53.763 82.496-54.241 4.032-97.143 49.455-97.143 104.709 0 57.897 47.103 105 105 105h151v-330c-38.303 0-75.625 13.422-105.094 37.795z" fill="#d1d1d1"/><path d="m256 422-22.5 45 22.5 45c24.853 0 45-20.147 45-45s-20.147-45-45-45z" fill="#b5f1ff"/><path d="m211 467c0 24.853 20.147 45 45 45v-90c-24.853 0-45 20.147-45 45z" fill="#dbf8ff"/></g></svg>